<?xml version="1.0" encoding="UTF-8"?>
<svg id="Layer_2" data-name="Layer 2" xmlns="http://www.w3.org/2000/svg" viewBox="0 0 478.25 105.9">
  <defs>
    <style>
      .cls-1 {
        fill: #102b3c;
      }

      .cls-2 {
        fill: #f36c21;
      }
    </style>
  </defs>
  <g id="Layer_1-2" data-name="Layer 1">
    <g>
      <path class="cls-2" d="M64.37,51.55c8.93,4.71,13.4,12.57,13.4,23.57,0,9.82-3.39,17.14-10.16,21.95-6.78,4.81-15.66,7.22-26.66,7.22H1.77c-.49,0-.91-.17-1.25-.52-.34-.34-.52-.76-.52-1.25V2.95c0-.49,.17-.91,.52-1.25,.34-.34,.76-.51,1.25-.51H39.77c11.98,0,21.04,2.26,27.17,6.78,6.14,4.52,9.21,11.83,9.21,21.95s-3.93,16.55-11.78,20.77c-.59,.29-.59,.59,0,.88ZM24.45,22.83v18.56c0,.49,.24,.74,.74,.74h14.58c4.02,0,7.12-.86,9.28-2.58,2.16-1.72,3.24-4.15,3.24-7.29s-1.08-5.74-3.24-7.51c-2.16-1.77-5.25-2.65-9.28-2.65h-14.58c-.49,0-.74,.25-.74,.74Zm25.63,57.67c2.16-1.82,3.24-4.44,3.24-7.88s-1.06-5.91-3.17-7.73c-2.11-1.82-5.18-2.72-9.21-2.72h-15.76c-.49,0-.74,.25-.74,.74v19.59c0,.49,.24,.74,.74,.74h15.76c3.93,0,6.97-.91,9.13-2.72Z"/>
      <path class="cls-2" d="M108.33,101.12c-6.04-3.19-10.73-7.68-14.07-13.48-3.34-5.79-5.01-12.52-5.01-20.18v-29.46c0-7.46,1.67-14.07,5.01-19.81,3.34-5.74,8.03-10.21,14.07-13.4,6.04-3.19,13.04-4.79,20.99-4.79s14.97,1.6,21.06,4.79c6.09,3.19,10.8,7.66,14.14,13.4,3.34,5.74,5.01,12.35,5.01,19.81v29.46c0,7.66-1.67,14.39-5.01,20.18-3.34,5.79-8.05,10.29-14.14,13.48-6.09,3.19-13.11,4.79-21.06,4.79s-14.95-1.6-20.99-4.79Zm32.4-20.69c2.9-3.04,4.35-7.12,4.35-12.22v-30.49c0-5.01-1.45-9.06-4.35-12.15-2.9-3.09-6.7-4.64-11.42-4.64s-8.37,1.55-11.27,4.64c-2.9,3.09-4.34,7.14-4.34,12.15v30.49c0,5.11,1.45,9.18,4.34,12.22,2.9,3.04,6.65,4.57,11.27,4.57s8.52-1.52,11.42-4.57Z"/>
      <path class="cls-2" d="M199.8,101.12c-6.04-3.19-10.73-7.68-14.07-13.48-3.34-5.79-5.01-12.52-5.01-20.18v-29.46c0-7.46,1.67-14.07,5.01-19.81,3.34-5.74,8.03-10.21,14.07-13.4,6.04-3.19,13.04-4.79,20.99-4.79s14.97,1.6,21.06,4.79c6.09,3.19,10.8,7.66,14.14,13.4,3.34,5.74,5.01,12.35,5.01,19.81v29.46c0,7.66-1.67,14.39-5.01,20.18-3.34,5.79-8.05,10.29-14.14,13.48-6.09,3.19-13.11,4.79-21.06,4.79s-14.95-1.6-20.99-4.79Zm32.4-20.69c2.9-3.04,4.35-7.12,4.35-12.22v-30.49c0-5.01-1.45-9.06-4.35-12.15-2.9-3.09-6.7-4.64-11.42-4.64s-8.37,1.55-11.27,4.64c-2.9,3.09-4.34,7.14-4.34,12.15v30.49c0,5.11,1.45,9.18,4.34,12.22,2.9,3.04,6.65,4.57,11.27,4.57s8.52-1.52,11.42-4.57Z"/>
      <path class="cls-2" d="M274.33,103.77c-.34-.34-.52-.76-.52-1.25V2.95c0-.49,.17-.91,.52-1.25,.34-.34,.76-.51,1.25-.51h20.92c.49,0,.91,.17,1.25,.51,.34,.35,.52,.76,.52,1.25V41.24c0,.29,.1,.47,.29,.52,.2,.05,.39-.02,.59-.22L328.9,2.21c.59-.69,1.27-1.03,2.06-1.03h23.86c.98,0,1.47,.34,1.47,1.03,0,.29-.15,.69-.44,1.18l-31.82,42.57c-.2,.39-.25,.74-.15,1.03l33.29,55.23c.2,.59,.29,.93,.29,1.03,0,.69-.49,1.03-1.47,1.03h-23.42c-1.08,0-1.82-.39-2.21-1.18l-23.12-39.33c-.29-.59-.64-.59-1.03,0l-7.66,10.46c-.2,.39-.29,.69-.29,.88v27.4c0,.49-.17,.91-.52,1.25s-.76,.52-1.25,.52h-20.92c-.49,0-.91-.17-1.25-.52Z"/>
      <path class="cls-1" d="M391.94,1.77c.2,.39,.2,.88,0,1.47l-12.52,30.93c-.29,.88-.98,1.33-2.06,1.33h-15.76c-1.38,0-1.92-.64-1.62-1.92l7.81-30.93c.29-.98,.98-1.47,2.06-1.47h20.77c.69,0,1.13,.2,1.33,.59Z"/>
      <path class="cls-1" d="M400.55,103.77c-.34-.34-.52-.76-.52-1.25V2.95c0-.49,.17-.91,.52-1.25,.34-.34,.76-.51,1.25-.51h37.56c7.66,0,14.43,1.33,20.33,3.98s10.46,6.43,13.7,11.34c3.24,4.91,4.86,10.56,4.86,16.94v38.59c0,6.38-1.62,12.03-4.86,16.94-3.24,4.91-7.81,8.69-13.7,11.34s-12.67,3.98-20.33,3.98h-37.56c-.49,0-.91-.17-1.25-.52Zm24.67-20.4h15.17c3.93,0,7.12-1.4,9.57-4.2,2.45-2.8,3.73-6.55,3.83-11.27v-30.34c0-4.71-1.25-8.47-3.76-11.27-2.5-2.8-5.77-4.2-9.79-4.2h-15.02c-.49,0-.74,.25-.74,.74v59.8c0,.49,.24,.74,.74,.74Z"/>
    </g>
  </g>
</svg>